Coordinates
version=1
nRows=36
nColumns=38
inDegrees=no

Units are S.I. units (second, meters, Newtons, ...)
If the header above contains a line with 'inDegrees', this indicates whether rotational values are in degrees (yes) or radians (no).

endheader
time	pelvis_tilt	pelvis_list	pelvis_rotation	pelvis_tx	pelvis_ty	pelvis_tz	hip_flexion_r	hip_adduction_r	hip_rotation_r	knee_angle_r	ankle_angle_r	subtalar_angle_r	mtp_angle_r	hip_flexion_l	hip_adduction_l	hip_rotation_l	knee_angle_l	ankle_angle_l	subtalar_angle_l	mtp_angle_l	lumbar_extension	lumbar_bending	lumbar_rotation	arm_flex_r	arm_add_r	arm_rot_r	elbow_flex_r	pro_sup_r	wrist_flex_r	wrist_dev_r	arm_flex_l	arm_add_l	arm_rot_l	elbow_flex_l	pro_sup_l	wrist_flex_l	wrist_dev_l
0	-0.20876	0.0075393	-2.99313	-0.235462	0.971238	-0.0341361	0.147312	0.026619	-0.224244	0.413017	0.0166115	0	0	-0.196014	-0.140886	0.0144949	0.868766	-0.0698356	0	0	-0.422365	0.0952993	-0.0742727	0.139128	-0.321364	1.45451	0.417353	0.0513343	0	0	0.394347	-0.335284	1.35212	0.702272	0.243672	0	0
0.00999104	-0.210475	0.00823269	-2.98879	-0.235072	0.972546	-0.0361478	0.132851	0.0312278	-0.227715	0.406225	0.0229849	0	0	-0.174038	-0.147281	0.0124503	0.901647	-0.0752715	0	0	-0.425829	0.0961986	-0.0682707	0.150879	-0.325162	1.45425	0.423808	0.0621833	0	0	0.385709	-0.33063	1.35684	0.695058	0.229113	0	0
0.0199821	-0.21207	0.00892052	-2.9846	-0.234568	0.9738	-0.0381011	0.118561	0.0358183	-0.231061	0.399463	0.0293313	0	0	-0.152053	-0.153594	0.0102325	0.93425	-0.0800789	0	0	-0.429189	0.0971034	-0.0623755	0.162818	-0.328973	1.45401	0.430273	0.0731962	0	0	0.376862	-0.326068	1.36138	0.68787	0.214658	0	0
0.0299731	-0.213282	0.00962711	-2.98088	-0.233953	0.974982	-0.039999	0.104765	0.0404047	-0.23402	0.392741	0.0355947	0	0	-0.129967	-0.159739	0.00751286	0.966164	-0.0833215	0	0	-0.43221	0.0980643	-0.0568071	0.175273	-0.332811	1.45384	0.436762	0.0846552	0	0	0.367401	-0.321775	1.36543	0.680765	0.200473	0	0
0.0399642	-0.213951	0.0102392	-2.97784	-0.233244	0.976083	-0.0418483	0.091634	0.0448828	-0.236375	0.386062	0.0417843	0	0	-0.107837	-0.165545	0.00402127	0.996846	-0.0841434	0	0	-0.434669	0.0989676	-0.0517202	0.188423	-0.336596	1.45379	0.443191	0.0967471	0	0	0.357044	-0.317949	1.36885	0.673806	0.186703	0	0
0.0499552	-0.214174	0.0106379	-2.97565	-0.232458	0.977118	-0.0436585	0.0790261	0.0491691	-0.237949	0.379337	0.0478515	0	0	-0.0859745	-0.170864	-0.000447831	1.02568	-0.0820543	0	0	-0.436589	0.0996665	-0.0472527	0.20248	-0.340249	1.45397	0.449489	0.109441	0	0	0.345662	-0.31477	1.37159	0.667036	0.173415	0	0
0.0599462	-0.214384	0.0107082	-2.97436	-0.231587	0.978126	-0.045447	0.0664194	0.0532039	-0.238679	0.372413	0.0537025	0	0	-0.064995	-0.175575	-0.00595732	1.05201	-0.0770311	0	0	-0.438498	0.0998427	-0.0425129	0.217065	-0.343933	1.45427	0.455647	0.122343	0	0	0.333918	-0.311961	1.37368	0.660462	0.160778	0	0
0.0699373	-0.214871	0.0103756	-2.97397	-0.230627	0.979135	-0.0472239	0.0534657	0.0569336	-0.238543	0.365195	0.0592805	0	0	-0.0453294	-0.179586	-0.0125113	1.07527	-0.0694098	0	0	-0.440737	0.099291	-0.036919	0.231911	-0.347767	1.45463	0.461659	0.13516	0	0	0.32226	-0.309334	1.37519	0.654096	0.148838	0	0
0.0799283	-0.215789	0.00960507	-2.97448	-0.229579	0.980163	-0.0489929	0.0399863	0.0603126	-0.237551	0.357653	0.0645673	0	0	-0.0272258	-0.18282	-0.0200489	1.095	-0.0597333	0	0	-0.443485	0.0979032	-0.0301524	0.246847	-0.351825	1.45499	0.467524	0.147682	0	0	0.310961	-0.306781	1.3762	0.64796	0.137571	0	0
0.0899194	-0.21717	0.00840029	-2.97584	-0.228443	0.981211	-0.0507534	0.0259646	0.0633084	-0.23574	0.349819	0.0695734	0	0	-0.0107559	-0.18523	-0.0284557	1.1109	-0.0485961	0	0	-0.446772	0.0956504	-0.0220981	0.26178	-0.356147	1.45532	0.473248	0.15976	0	0	0.300158	-0.304251	1.37681	0.642076	0.12692	0	0
0.0999104	-0.218953	0.00679915	-2.97797	-0.227221	0.982273	-0.0525011	0.0114997	0.0659074	-0.233182	0.341759	0.074327	0	0	0.00414982	-0.186798	-0.0375665	1.12278	-0.0365363	0	0	-0.450518	0.0925745	-0.0128055	0.27667	-0.360736	1.4556	0.478836	0.171299	0	0	0.289885	-0.30174	1.37712	0.63647	0.116833	0	0
0.109901	-0.221021	0.00486632	-2.98076	-0.225917	0.983331	-0.0542278	-0.00324524	0.0681174	-0.229985	0.333555	0.0788679	0	0	0.0176595	-0.187539	-0.0471739	1.13061	-0.0239855	0	0	-0.454575	0.0887768	-0.00245228	0.291516	-0.36557	1.45583	0.4843	0.182246	0	0	0.280101	-0.299273	1.37721	0.631161	0.1073	0	0
0.119892	-0.223238	0.00268799	-2.98405	-0.224535	0.984367	-0.0559226	-0.0180976	0.0699722	-0.226293	0.325272	0.0832368	0	0	0.0299859	-0.187498	-0.0570482	1.13442	-0.0112639	0	0	-0.458775	0.0844088	0.00870035	0.30634	-0.370616	1.456	0.489664	0.192581	0	0	0.270724	-0.296889	1.37715	0.626155	0.0983612	0	0
0.129884	-0.225479	0.000358793	-2.98768	-0.223078	0.985362	-0.0575723	-0.0329	0.0715226	-0.222287	0.31696	0.0874693	0	0	0.041353	-0.186742	-0.0669559	1.13436	0.00139917	0	0	-0.462962	0.0796521	0.0203428	0.321185	-0.375829	1.45612	0.494958	0.202284	0	0	0.261655	-0.29463	1.377	0.621452	0.0900858	0	0
0.139875	-0.227635	-0.00203301	-2.99146	-0.221549	0.986297	-0.0591623	-0.0475224	0.0728241	-0.218172	0.308661	0.0915967	0	0	0.0519747	-0.185345	-0.0766699	1.13061	0.0138341	0	0	-0.467008	0.0746971	0.0321377	0.336094	-0.381157	1.45619	0.500219	0.211337	0	0	0.252795	-0.292537	1.37681	0.617045	0.0825757	0	0
0.149866	-0.229625	-0.00441676	-2.99519	-0.219953	0.987158	-0.0606764	-0.0618688	0.0739273	-0.214172	0.300415	0.0956469	0	0	0.0620403	-0.183373	-0.0859714	1.12338	0.0259095	0	0	-0.470818	0.069727	0.0437347	0.351106	-0.386536	1.45623	0.505476	0.219744	0	0	0.24405	-0.290643	1.37659	0.612921	0.0759802	0	0
0.159857	-0.231389	-0.00674645	-2.99865	-0.218293	0.987932	-0.0620981	-0.0758743	0.0748694	-0.210513	0.292259	0.0996543	0	0	0.0717088	-0.180871	-0.0946572	1.11291	0.0375229	0	0	-0.474321	0.0649038	0.0547879	0.366242	-0.391894	1.45623	0.510753	0.227519	0	0	0.23534	-0.288974	1.37639	0.609057	0.0704688	0	0
0.169848	-0.232886	-0.00900423	-3.00163	-0.216574	0.988611	-0.0634104	-0.0894963	0.0756686	-0.207426	0.284237	0.103667	0	0	0.0811104	-0.177861	-0.102545	1.09945	0.0486065	0	0	-0.477466	0.0603589	0.0649686	0.381502	-0.397155	1.45622	0.516064	0.234671	0	0	0.226599	-0.287537	1.3762	0.605421	0.0660876	0	0
0.179839	-0.234082	-0.0111996	-3.00391	-0.214804	0.989187	-0.0645966	-0.102706	0.0763225	-0.205132	0.276398	0.107747	0	0	0.0903506	-0.174332	-0.109481	1.08325	0.05912	0	0	-0.480206	0.0561879	0.073981	0.396863	-0.402239	1.4562	0.52141	0.241215	0	0	0.217774	-0.286321	1.37604	0.60197	0.0627761	0	0
0.18983	-0.234949	-0.0133644	-3.00533	-0.212991	0.989655	-0.0656414	-0.115481	0.0768118	-0.203823	0.268788	0.111969	0	0	0.0995137	-0.170251	-0.115342	1.06456	0.0690353	0	0	-0.482494	0.0524497	0.0815736	0.412277	-0.407066	1.45619	0.52678	0.247179	0	0	0.208826	-0.285302	1.3759	0.598654	0.06041	0	0
0.199821	-0.235456	-0.0155441	-3.00572	-0.211147	0.990013	-0.0665313	-0.127802	0.0771063	-0.203659	0.26146	0.116406	0	0	0.108665	-0.165566	-0.120046	1.04362	0.0783244	0	0	-0.484284	0.0491712	0.0875486	0.427678	-0.411564	1.45618	0.532151	0.252583	0	0	0.19973	-0.284444	1.3758	0.595423	0.0588349	0	0
0.209812	-0.235576	-0.0177865	-3.00498	-0.20928	0.990259	-0.0672557	-0.139649	0.0771755	-0.204739	0.254461	0.121123	0	0	0.117851	-0.160226	-0.123557	1.02066	0.0869506	0	0	-0.485524	0.0463543	0.0917708	0.442983	-0.415664	1.4562	0.537492	0.257444	0	0	0.190472	-0.283705	1.37572	0.592231	0.0578889	0	0
0.219803	-0.235284	-0.0201304	-3.00304	-0.207403	0.990393	-0.0678085	-0.151005	0.0770009	-0.207086	0.247826	0.126162	0	0	0.127104	-0.154193	-0.125895	0.995898	0.0948696	0	0	-0.486168	0.0439839	0.0941797	0.458103	-0.419313	1.45625	0.542773	0.261778	0	0	0.181053	-0.28304	1.37566	0.58904	0.0574185	0	0
0.229794	-0.234558	-0.0225984	-2.99991	-0.205525	0.990414	-0.0681893	-0.161861	0.0765824	-0.21064	0.241572	0.131547	0	0	0.136431	-0.147463	-0.127141	0.969537	0.102024	0	0	-0.486185	0.0420296	0.0948012	0.472948	-0.422477	1.45634	0.547972	0.265598	0	0	0.171492	-0.282405	1.37562	0.585831	0.0572877	0	0
0.239785	-0.233396	-0.0251944	-2.99568	-0.203653	0.990328	-0.0684042	-0.172216	0.0759409	-0.215291	0.235699	0.137281	0	0	0.145812	-0.140059	-0.127437	0.941765	0.108338	0	0	-0.485565	0.0404474	0.0937473	0.487433	-0.425138	1.45648	0.553075	0.268935	0	0	0.161819	-0.281761	1.37559	0.582602	0.0573828	0	0
0.249776	-0.231809	-0.0279053	-2.99047	-0.201793	0.990138	-0.0684648	-0.182085	0.0751146	-0.220881	0.230187	0.143352	0	0	0.155196	-0.132039	-0.126969	0.912752	0.113737	0	0	-0.484324	0.0391833	0.0911984	0.501489	-0.427292	1.45668	0.558079	0.271844	0	0	0.152079	-0.281079	1.37557	0.579369	0.0576128	0	0
0.259767	-0.22983	-0.0307024	-2.98448	-0.199949	0.98985	-0.0683868	-0.191501	0.0741553	-0.227202	0.225004	0.149721	0	0	0.164511	-0.123487	-0.125944	0.882642	0.118155	0	0	-0.482509	0.0381798	0.0873825	0.515059	-0.428947	1.45693	0.562988	0.274406	0	0	0.14232	-0.280332	1.37556	0.576155	0.0579092	0	0
0.269758	-0.227506	-0.0335455	-2.97791	-0.198123	0.989472	-0.0681887	-0.200506	0.0731214	-0.23402	0.220115	0.156341	0	0	0.173667	-0.114504	-0.124573	0.851563	0.121539	0	0	-0.480189	0.03738	0.0825558	0.528105	-0.430119	1.45724	0.567815	0.276711	0	0	0.132594	-0.279499	1.37556	0.572983	0.0582228	0	0
0.279749	-0.2249	-0.0363869	-2.97099	-0.196318	0.989012	-0.06789	-0.209153	0.0720741	-0.241091	0.215485	0.163155	0	0	0.182569	-0.105206	-0.123051	0.819629	0.12385	0	0	-0.477455	0.0367311	0.0769857	0.540607	-0.430834	1.45759	0.572585	0.278846	0	0	0.122956	-0.278562	1.37555	0.56988	0.0585208	0	0
0.28974	-0.222086	-0.039174	-2.96395	-0.194533	0.988477	-0.0675102	-0.217499	0.0710735	-0.248178	0.211089	0.170106	0	0	0.191116	-0.0957092	-0.121539	0.786949	0.125075	0	0	-0.474413	0.0361872	0.070939	0.552557	-0.431123	1.45796	0.577331	0.280884	0	0	0.113462	-0.277511	1.37555	0.566877	0.0587836	0	0
0.299731	-0.219149	-0.0418524	-2.95701	-0.192768	0.987875	-0.0670686	-0.225603	0.0701746	-0.255071	0.206918	0.177134	0	0	0.199216	-0.0861342	-0.120146	0.753631	0.12523	0	0	-0.471184	0.0357111	0.0646727	0.563956	-0.431031	1.45831	0.582098	0.282885	0	0	0.104168	-0.276339	1.37554	0.564003	0.0590013	0	0
0.309722	-0.216173	-0.0443701	-2.95036	-0.191024	0.987212	-0.0665832	-0.23352	0.0694237	-0.26158	0.202974	0.184189	0	0	0.206789	-0.0765929	-0.118928	0.719791	0.124368	0	0	-0.467889	0.035272	0.058429	0.574807	-0.430608	1.45859	0.586933	0.284907	0	0	0.0951341	-0.275047	1.37554	0.56128	0.0591714	0	0
0.319713	-0.213242	-0.0466797	-2.94418	-0.189299	0.986495	-0.0660702	-0.241295	0.0688542	-0.267546	0.19928	0.191231	0	0	0.213773	-0.0671858	-0.117877	0.685551	0.122589	0	0	-0.464646	0.0348451	0.0524306	0.585108	-0.429912	1.45871	0.591883	0.287006	0	0	0.0864165	-0.273637	1.37553	0.558726	0.0592959	0	0
0.329704	-0.210429	-0.0487413	-2.93862	-0.187594	0.985726	-0.0655438	-0.248964	0.0684837	-0.272827	0.195872	0.198233	0	0	0.220129	-0.0579982	-0.116922	0.651041	0.12003	0	0	-0.461566	0.0344095	0.0468783	0.594857	-0.429005	1.45856	0.596994	0.28925	0	0	0.07807	-0.272113	1.37553	0.556347	0.0593799	0	0
0.339695	-0.207797	-0.0505241	-2.93383	-0.18591	0.98491	-0.0650158	-0.256546	0.0683121	-0.277306	0.192801	0.205182	0	0	0.225832	-0.0491004	-0.11594	0.616398	0.116848	0	0	-0.458743	0.0339447	0.0419506	0.604044	-0.427956	1.458	0.602311	0.291727	0	0	0.0701463	-0.270479	1.37552	0.554133	0.0594297	0	0
0.349686	-0.205399	-0.0520082	-2.92992	-0.184249	0.984048	-0.0644967	-0.264051	0.0683215	-0.280887	0.190132	0.212075	0	0	0.230878	-0.0405517	-0.11477	0.581777	0.113209	0	0	-0.456259	0.0334269	0.0378052	0.61265	-0.426833	1.45689	0.607873	0.294558	0	0	0.0626947	-0.268738	1.37551	0.552071	0.0594521	0	0
